<svg id="Layer_1" data-name="Layer 1" xmlns="http://www.w3.org/2000/svg" viewBox="0 0 85.47089 50"><defs><style>.cls-1{fill:#fff;}.cls-2{fill:#522b79;}.cls-3{fill:#482670;}</style></defs><g id="Layer_1-2" data-name="Layer 1"><path class="cls-1" d="M60.47089,0A24.92092,24.92092,0,0,0,42.73541,7.38293a25,25,0,1,0,0,35.23414A24.99924,24.99924,0,1,0,60.47089,0Z"/><path class="cls-2" d="M60.47089.4A24.6,24.6,0,1,1,43.01918,42.33516l-.28377-.28566-.28378.28566A24.59922,24.59922,0,1,1,24.99994.4,24.43081,24.43081,0,0,1,42.45163,7.66484l.28378.28567.28377-.28567A24.43089,24.43089,0,0,1,60.47089.4m0-.4A24.92094,24.92094,0,0,0,42.73541,7.38293a25,25,0,1,0,0,35.23414A24.99924,24.99924,0,1,0,60.47089,0Z"/><path class="cls-2" d="M73.5354,26.95a94.98328,94.98328,0,0,1-2.54-10.77,15.26487,15.26487,0,0,0-.51-2.23,12.5564,12.5564,0,0,0-3.39-5.82,10.23793,10.23793,0,0,0-13.97-.18,13.58567,13.58567,0,0,0-3.31,5.64c-.15.49-.33,1.13-.33,1.13-.18.65-.3,1.14-.35,1.33-1.44,5.75-2.16,8.62-2.57,10.33-1.24,5.24-3.15,9.45-4.65,13.7a25.07611,25.07611,0,0,0,1.98,2.14l.03.03c.22.2.43.4.65.6.01.01.03.02.04.04.64.57,1.32,1.09,2.02,1.6l.05.03.00385.00256-.00018.00122c.23053.1626.46789.3158.70422.4704l.32214.21582.05.03a23.86232,23.86232,0,0,0,2.27,1.26c.02.01.03.02.05.03.23.11.46.21.69.31.02.01.03.01.05.02.27.12.53.23.81.34l.04516.018-.00006.00091c.053.02094.10614.04163.15906.06275l.1958.07831.05.02a23.95051,23.95051,0,0,0,17.18-.19c.02-.01.03-.01.05-.02.19-.08.38-.15.56-.23.02-.01.03-.01.05-.02a23.29409,23.29409,0,0,0,5.32-3.2c.01-.01.03-.02.04-.03.25-.19.5-.4.74005-.61.00995-.00995.03-.02.04-.04a24.08,24.08,0,0,0,2.52-2.53A141.18684,141.18684,0,0,1,73.5354,26.95Zm-21.28-7.31c-.05,0-.09-.01-.14-.01-.15-.01-.29-.02-.43-.03h-.02a1.89878,1.89878,0,0,0,.07-.28c.03-.12.06-.25.09-.38.05-.17.09-.34.13-.5,0-.02.01-.04.01-.06.01-.02.01-.03.02-.05,0-.00995,0-.00995.01-.02a.38122.38122,0,0,1,.1-.03,1.05177,1.05177,0,0,1,.17-.04c.06-.01.11-.03.17-.04a47.10373,47.10373,0,0,1,14.66-.01c.05.01.09.02.14.03.19.03.36.06.54.1.00995.00995.00995.02.00995.04a1.81361,1.81361,0,0,1,.07.25v.03a.83213.83213,0,0,1,.04.15c.01.05.03.1.04.15l.09.36c.03.11.05.21.08.32a.4871.4871,0,0,0-.12.01c-.06,0-.13.01-.19.01-.13.00995-.25.02-.38.02-.13.01-.27.02-.41.03C62.9054,19.9,55.96545,19.88,52.25543,19.64Z"/><path class="cls-3" d="M68.92543,19.54l-.07-.28c-.06-.25-.12-.5-.18-.74005l-.09-.36-.06-.25c-.02-.07-.04-.13-.06-.19a1.05374,1.05374,0,0,0-.05-.19v-.01c-.02-.07-.04-.13-.06-.19a1.05536,1.05536,0,0,0-.05-.18995,40.21056,40.21056,0,0,0-2.95-7.37005l-.04.02-.05.02c.26.75.53,1.58.88,2.68.4,1.28.77,2.55,1.1,3.8.1.35.19.7.28,1.04l.06.21.09.36q.045.16508.09.36005c.01.00995.01.02.01.04v.02c.01.00995.01.02.01.04a1.815,1.815,0,0,1,.07.25v.03a.83213.83213,0,0,1,.04.15c.01.05.03.1.04.15l.09.36c.03.11.05.21.07995.32v.01a1.606,1.606,0,0,0,.05.21c.04.17.08.34.12006.52.04.18.09.37.12994.56.57,2.55,1.05,5.08,1.42,7.53l.05-.01h.05a41.9733,41.9733,0,0,0-.81-8.03C69.05544,20.13,68.99544,19.83,68.92543,19.54Z"/><path class="cls-3" d="M54.31544,10.17a41.44443,41.44443,0,0,0-2.59,6.18c-.03.1-.06.18-.09.28l-.06.21a1.8641,1.8641,0,0,0-.07.22q-.06.21-.12.39v.02a.14463.14463,0,0,0-.02.07c-.07.23-.14.47-.2.7-.03.1-.05.19-.08.29v.01c-.01.04-.02.07-.03.1-.03.12-.06.23-.08.35-.05.17-.09.35-.13.54-.06.23-.12.47-.17.7a42.6345,42.6345,0,0,0-.89,6.71c-1.31994,5.76-2.38,11.67-3.15,17.55l.05.03.00384.00256-.00018.00122c.23053.1626.46789.3158.70422.4704l.32215.21582.05.03v-.03c.44-5.63,1.1-11.28,1.98-16.81v.05c0,.13-.01.25995-.01.39h.05l.05.01c.43-2.78.93-5.37,1.52-7.92l.04-.19c.07-.29.13995-.59.21-.88.02-.08.04-.17.06-.25V19.6a1.89627,1.89627,0,0,0,.07-.28c.03-.12.06-.25.09-.38.05-.17.09-.34.13-.5,0-.02.01-.04.01-.06.00994-.02.00994-.03.01995-.05,0-.00995,0-.00995.01-.02.04-.19.09-.39.14-.57v-.01a.46432.46432,0,0,1,.03-.09v-.02a.14463.14463,0,0,0,.02-.07c.05-.21.11-.42.17-.62.06-.21.11005-.43.17-.64.36-1.27.67-2.32.97-3.29.34-1.1.63-1.99.91-2.79l-.05-.02Z"/><path class="cls-3" d="M53.99543,21.36h-.02c-.05,0-.07995.03-.13995.36-.13.64-.39,2.15-.74,4.23-.1.62-.2,1.28-.31995,1.96-.14.9-.29,1.83-.44,2.76-.17,1.13-.35,2.26-.52,3.31-.07.46-.14.91-.21,1.34-.85,5.44995-1.31,8.69-1.57,11.18.02.01.03.02.05.03.23.11.46.21.69.31.02.01.03.01.05.02v-.02c.33-4.29,1.21-10.73,2.41-19.35.05-.39.1-.74.15-1.07.07-.54.14-1.01.19-1.44.11-.77.19-1.37.25-1.84l.05-.38c.07-.52.11-.83.13-1.03.03-.33.03-.33.01-.35Z"/><path class="cls-3" d="M52.24543,43.83h-.03a8.07443,8.07443,0,0,0-.58,3.37l.04516.018-.00006.00091c.053.02094.10614.04163.15906.06275l.1958.07831.05.02v-.03a16.54691,16.54691,0,0,1,.15-3.06c.05-.34.05-.4.02-.44Z"/><path class="cls-3" d="M46.69545,33.14l-.05-.02a63.11665,63.11665,0,0,0-2.75,9.1l.03.03c.22.2.43.4.65.6.01.01.03.02.04.04l.01-.03c.58-3.25,1.3-6.52,2.12-9.71Z"/><path class="cls-3" d="M66.57545,21.72c-.09-.36-.11-.36-.15-.36h-.03l-.01.02c-.03.03-.03.06,0,.28l.01.08c.06.39.22,1.45.53,3.91v.02c.07.55.15,1.15.23,1.82.94,7.62,1.6,14.23,2.11005,19.68v.02c.02-.01.03-.01.05-.02.19-.08.38-.15.56-.23.02-.01.03-.01.05-.02-.71-10.31-2.24-19.4-2.69-21.95C66.94545,23.37,66.71547,22.24,66.57545,21.72Z"/><path class="cls-3" d="M75.94545,42.44a66.49815,66.49815,0,0,0-3.11-10.75l-.05.02-.05.01c1,3.91,1.84,7.94,2.5,11.98l.01.02c.01-.01.03-.02.04-.03.25-.19.5-.4.74-.61.01-.00995.03-.02.04-.04Z"/><path class="cls-2" d="M14.32959,14.42988a16.98259,16.98259,0,0,0,.02634,1.98028c.18711-.06829.38221-.13724.58385-.20632A27.23156,27.23156,0,0,0,15.3663,18.993a3.45146,3.45146,0,0,0-.81558,2.302,2.892,2.892,0,0,0,1.9314,2.97716c-.31694,2.59048-.33449,5.97134.33263,7.15571l.10886-.38715A4.18014,4.18014,0,0,0,18.122,33.38416l.00031-.44114c.14819.262.28847.52312.43786.77744a5.41769,5.41769,0,0,0,.79628,1.0818,3.79487,3.79487,0,0,0,.55409.46674l-.027-.554a5.65472,5.65472,0,0,0,1.80418,1.81379l-.00553-.26923A4.53752,4.53752,0,0,0,22.751,37.36119c.07976.05565.163.10929.251.15981a.3595.3595,0,0,0,.00471-.16949.3332.3332,0,0,1,.00622-.1564.86742.86742,0,0,0,.15455.15108A4.15855,4.15855,0,0,0,25.246,37.795a4.25485,4.25485,0,0,0,2.05088-.42807.89219.89219,0,0,0,.18228-.17184.378.378,0,0,1,.00376.17714.31954.31954,0,0,0,.00715.14875q.11814-.06781.226-.14213A4.50208,4.50208,0,0,0,28.81,36.25951l-.00552.26923a5.72066,5.72066,0,0,0,1.75343-1.73153c.017-.02732.03415-.0544.05075-.08226l-.00453.09258-.0225.46147a3.78689,3.78689,0,0,0,.448-.3626,4.47713,4.47713,0,0,0,.64032-.76714c.25711-.38148.46893-.7879.69991-1.19624l.00036.44114a4.18,4.18,0,0,0,1.19832-2.34352l.10887.38715c.66711-1.18437.64956-4.56523.33263-7.15571a2.892,2.892,0,0,0,1.93138-2.97716A2.95451,2.95451,0,0,0,34.14727,18.353a14.33373,14.33373,0,0,0,.71557-2.17261c.216.07327.42349.146.61988.21722.0015-.12.003-.29888.0017-.51548a21.25264,21.25264,0,0,0-.1778-3.04293q-.02529-.16566-.05072-.33072a5.56573,5.56573,0,0,0-.29573-1.63072,7.21625,7.21625,0,0,0-1.46225-3.18633c-1.56832-1.85738-3.84328-2.2108-6.22985-2.5816a15.15068,15.15068,0,0,0-6.6627.44833A10.31648,10.31648,0,0,0,17.5909,6.85673a7.89164,7.89164,0,0,0-2.92656,4.9253,6.27138,6.27138,0,0,0-.33846,2.6602Zm19.60434,4.89586q-.00021.55288-.00111,1.11958c0,.97678-.01508,1.92606-.067,2.83445q-.02072.3621-.04965.71526-.0331.15808-.07685.31359a10.60939,10.60939,0,0,1-1.24408,2.55418,8.539,8.539,0,0,1-.992,1.40647,3.19125,3.19125,0,0,1-.773.623c-.63643.357-2.59675.96076-3.66409.346-.96843-.55779-1.069-.42448-1.069-.42448H24.495s.02874-.16448-1.069.42448c-1.08541.58233-3.02762.011-3.66408-.346a3.1912,3.1912,0,0,1-.773-.623,8.53966,8.53966,0,0,1-.992-1.40647,10.60939,10.60939,0,0,1-1.24408-2.55418q-.04353-.15565-.0769-.31384-.02911-.35293-.04963-.715c-.052-.90839-.067-1.85766-.067-2.83444q0-.41868-.00086-.83027.08011-.16115.16524-.31944a10.567,10.567,0,0,1,.58671-.9586,10.01883,10.01883,0,0,1,3.61387-3.23176,3.626,3.626,0,0,1-.83832,1.38194,13.82847,13.82847,0,0,0,5.51529-1.94295,30.89826,30.89826,0,0,1,6.847.92481c.02391.03285.04716.06614.07141.09877l.00935-.07821q.29666.07534.57973.15307l.64235,2.639.15161.62285c.01056-.02242.02039-.04517.03084-.06764Q33.9341,19.07978,33.93393,19.32574Z"/><path class="cls-2" d="M37.44737,38.05061q-2.03181-1.227-4.06356-2.45406l.00192-.00227c-.50416-.17361-1.082-.35484-1.726-.5274q-.00325.42026-.00424.84423-.00108.57963.00257,1.1517c-.20875.14549-.43231.29061-.67037.43262a10.9764,10.9764,0,0,1-5.11246,1.54415l-.00286-.00354-.48446.00853-.75781-.01336-.00132.00165a12.35429,12.35429,0,0,1-2.8554-.51794,12.09774,12.09774,0,0,1-2.27142-.93824c-.333-.17894-.64178-.36487-.92713-.552q.002-.44074.002-.88471-.00014-.57853-.00409-1.15067c-.69445.17732-1.31612.36657-1.85683.54869l.00058.00064q-1.82845,1.53321-3.657,3.06647l.00426.00529a21.23471,21.23471,0,0,0-5.95255,2.29827,24.02855,24.02855,0,0,0,7.88892,5.86209A23.83274,23.83274,0,0,0,19.818,48.39709a24.0951,24.0951,0,0,0,4.86064.56662q.17834.00263.35675.00279.44265,0,.88443-.01675a23.95872,23.95872,0,0,0,17.90994-9.07814A20.46041,20.46041,0,0,0,37.44737,38.05061Z"/></g></svg>