<?xml version="1.0" encoding="utf-8"?>
<!-- Generator: Adobe Illustrator 26.0.1, SVG Export Plug-In . SVG Version: 6.00 Build 0)  -->
<svg version="1.1" id="Layer_1" xmlns="http://www.w3.org/2000/svg" xmlns:xlink="http://www.w3.org/1999/xlink" x="0px" y="0px"
	 viewBox="0 0 50 50" style="enable-background:new 0 0 50 50;" xml:space="preserve">
<style type="text/css">
	.st0{fill:#FFFFFF;}
	.st1{fill:#522B79;}
	.st2{fill:#482670;}
</style>
<g id="Layer_3">
	<circle class="st0" cx="25" cy="25" r="24.9500008"/>
</g>
<g id="Layer_1_00000142155711878159736980000014846790041228543643_">
	<path class="st1" d="M25,0.4C38.5644913,0.4,49.5999985,11.4355097,49.5999985,25S38.5644913,49.5999985,25,49.5999985
		S0.4,38.5644913,0.4,25S11.4355097,0.4,25,0.4 M25,0C11.1928797,0,0,11.1928797,0,25s11.1928797,25,25,25s25-11.1928787,25-25
		S38.8071213,0,25,0L25,0z"/>
</g>
<path class="st1" d="M38.0999756,26.9500122c-0.6199951-2.1700439-1.8800049-6.5900269-2.539978-10.7700195
	C35.5,15.789978,35.3699951,14.9899902,35.0499878,13.9500122c-0.3900146-1.25-1.1699829-3.7900391-3.3900146-5.8200073
	c-0.8599854-0.8000488-3.5-2.9400024-7.3699951-2.8400269c-0.5,0.0100098-3.8800049,0.1500244-6.5999756,2.6600342
	c0,0-2.210022,2.0299683-3.3099976,5.6399536c-0.1500244,0.4899902-0.3300171,1.1300049-0.3300171,1.1300049
	c-0.1799927,0.6500244-0.2999878,1.1400146-0.3499756,1.3300171c-1.4400024,5.75-2.1600342,8.6199951-2.5700073,10.3300171
	c-1.2399902,5.2399902-3.1500244,9.4499512-4.6500244,13.6999512c0.6199951,0.75,1.2800293,1.4700317,1.9800415,2.1400146
	C8.4699707,42.2299805,8.4799805,42.2399902,8.4899902,42.25c0.2200317,0.2000122,0.4299927,0.3999634,0.6500244,0.5999756
	c0.0100098,0.0100098,0.0299683,0.0200195,0.039978,0.0400391C9.8200073,43.4599609,10.5,43.9799805,11.2000122,44.4899902
	L11.25,44.5199585l0.0038452,0.0025635c-0.000061,0.0004272-0.0001221,0.0007935-0.0001831,0.0012207
	c0.2305298,0.1625977,0.4678955,0.3157959,0.7042236,0.4703979l0.3221436,0.2158203l0.0499878,0.0300293
	c0.7299805,0.460022,1.4899902,0.8800049,2.2699585,1.2600098c0.0200195,0.0100098,0.0300293,0.0199585,0.0500488,0.0299683
	c0.2299805,0.1100464,0.4599609,0.210022,0.6900024,0.3099976c0.0199585,0.0100098,0.0299683,0.0100098,0.0499878,0.0200195
	c0.2699585,0.1199951,0.5299683,0.2299805,0.8099976,0.3400269l0.045166,0.0180054
	c0,0.0003052-0.000061,0.0006104-0.000061,0.0009155c0.0530396,0.0209351,0.1061401,0.041626,0.1590576,0.0627441
	l0.1958008,0.0783081l0.0500488,0.0200195c2.5999756,0.9699707,5.4099731,1.5,8.3499756,1.5
	c3.1199951,0,6.0999756-0.6000366,8.8300171-1.6900024c0.0199585-0.0100098,0.0299683-0.0100098,0.0499878-0.0200195
	c0.1900024-0.0800171,0.3800049-0.1500244,0.5599976-0.2299805c0.0200195-0.0100098,0.0299683-0.0100098,0.0499878-0.0200195
	c1.9299927-0.8300171,3.7000122-1.9099731,5.3200073-3.2000122c0.0100098-0.0100098,0.0300293-0.0199585,0.039978-0.0299683
	c0.25-0.1900024,0.5-0.4000244,0.7400513-0.6100464c0.0099487-0.0099487,0.0299683-0.0199585,0.039978-0.039978
	c0.9000244-0.7799683,1.7399902-1.6199951,2.5200195-2.5299683C41.6799927,36.7199707,39.6300049,32.3099976,38.0999756,26.9500122z
	 M16.8200073,19.6400146c-0.0499878,0-0.0900269-0.0100098-0.1400146-0.0100098
	c-0.1499634-0.0100098-0.289978-0.0200195-0.4299927-0.0300293c-0.0100098,0-0.0100098,0-0.0200195,0
	c0.0300293-0.0899658,0.0500488-0.1699829,0.0700073-0.2799683c0.0300293-0.1199951,0.0599976-0.25,0.0900269-0.3800049
	c0.0499878-0.1700439,0.0899658-0.3400269,0.1300049-0.5c0-0.0200195,0.0100098-0.0400391,0.0100098-0.0599976
	c0.0099487-0.0200195,0.0099487-0.0300293,0.0199585-0.0500488c0-0.0099487,0-0.0099487,0.0100098-0.0199585
	c0.0300293-0.0200195,0.0700073-0.0200195,0.0999756-0.0300293c0.0599976-0.0199585,0.1100464-0.0299683,0.1700439-0.039978
	S16.9400024,18.2099609,17,18.2000122c3.9299927-0.8200073,10.5999756-0.7200317,14.6599731-0.0100098
	c0.0500488,0.0100098,0.0900269,0.0199585,0.1400146,0.0299683c0.1900024,0.0300293,0.3599854,0.0599976,0.5400391,0.1000366
	c0.0099487,0.0099487,0.0099487,0.0199585,0.0099487,0.039978c0.0300293,0.0800171,0.0500488,0.1599731,0.0700073,0.25v0.0300293
	c0.0200195,0.0499878,0.0300293,0.0999756,0.0400391,0.1499634c0.0099487,0.0499878,0.0299683,0.1000366,0.039978,0.1500244
	c0.0300293,0.1199951,0.0599976,0.2399902,0.0900269,0.3599854c0.0299683,0.1099854,0.0499878,0.210022,0.0799561,0.3200073
	c-0.039978,0-0.0799561,0-0.1199951,0.0100098c-0.0599976,0-0.1300049,0.0100098-0.1900024,0.0100098
	c-0.1300049,0.0099487-0.25,0.0199585-0.3800049,0.0199585c-0.1300049,0.0100098-0.2699585,0.0200195-0.4099731,0.0300293
	C27.4699707,19.8999634,20.5300293,19.8800049,16.8200073,19.6400146z"/>
<g>
	<path class="st2" d="M33.4899902,19.539978l-0.0700073-0.2799683c-0.0599976-0.25-0.1199951-0.5-0.1799927-0.7400513
		c-0.0299683-0.1199951-0.0599976-0.2399902-0.0899658-0.3599854l-0.0599976-0.25
		c-0.0200195-0.0700073-0.0400391-0.1300049-0.0599976-0.1900024C33.0200195,17.6499634,33,17.5899658,32.9799805,17.5299683
		v-0.0100098c-0.0199585-0.0699463-0.039978-0.1299438-0.0599976-0.1900024
		c-0.0100098-0.0699463-0.0299683-0.1299438-0.0499878-0.1899414c-0.7399902-2.5500488-1.7299805-5.0300293-2.9500122-7.3700562
		l-0.039978,0.0200195l-0.0499878,0.0200195c0.2600098,0.75,0.5299683,1.5800171,0.8800049,2.6799927
		c0.3999634,1.2799683,0.7699585,2.5499878,1.0999756,3.7999878C31.9099731,16.6400146,32,16.9899902,32.0900269,17.3299561
		l0.0599976,0.210022c0.0299683,0.1199951,0.0599976,0.2399902,0.0899658,0.3599854
		c0.0300293,0.1100464,0.0599976,0.2300415,0.0900269,0.3600464c0.0100098,0.0099487,0.0100098,0.0199585,0.0100098,0.039978
		c0,0,0,0.0100098,0,0.0200195c0.0099487,0.0099487,0.0099487,0.0199585,0.0099487,0.039978
		c0.0300293,0.0800171,0.0500488,0.1599731,0.0700073,0.25v0.0300293c0.0200195,0.0499878,0.0300293,0.0999756,0.0400391,0.1499634
		c0.0099487,0.0499878,0.0299683,0.1000366,0.039978,0.1500244c0.0300293,0.1199951,0.0599976,0.2399902,0.0900269,0.3599854
		c0.0299683,0.1099854,0.0499878,0.210022,0.0799561,0.3200073v0.0100098
		c0.0100098,0.0700073,0.0300293,0.1399536,0.0499878,0.2099609c0.0400391,0.1700439,0.0800171,0.3400269,0.1200562,0.5200195
		c0.039978,0.1799927,0.0899658,0.3699951,0.1299438,0.5599976C33.539978,23.4699707,34.0200195,26,34.3900146,28.4500122
		l0.0499878-0.0100098h0.0499878c-0.0100098-2.7200317-0.289978-5.4200439-0.8099976-8.0300293
		C33.6199951,20.1300049,33.5599976,19.8299561,33.4899902,19.539978z"/>
	<path class="st2" d="M18.8800049,10.1699829C17.8699951,12.1099854,17,14.1900024,16.289978,16.3499756
		c-0.0299683,0.1000366-0.0599976,0.1799927-0.0899658,0.2800293c-0.0200195,0.0700073-0.0400391,0.1399536-0.0599976,0.2099609
		c-0.0300293,0.0700073-0.0499878,0.1500244-0.0700073,0.2200317c-0.039978,0.1400146-0.0800171,0.2699585-0.1199951,0.3900146
		v0.0199585c-0.0100098,0.0200195-0.0200195,0.0400391-0.0200195,0.0700073
		c-0.0700073,0.2299805-0.1400146,0.4700317-0.2000122,0.7000122c-0.0299683,0.0999756-0.0499878,0.1900024-0.0799561,0.289978
		v0.0100098c-0.0100098,0.039978-0.0200195,0.0700073-0.0300293,0.1000366
		c-0.0299683,0.1199951-0.0599976,0.2299805-0.0800171,0.3499756c-0.0499878,0.1699829-0.0899658,0.3499756-0.1300049,0.539978
		C15.3499756,19.7600098,15.289978,20,15.2399902,20.2299805c-0.4699707,2.1799927-0.7700195,4.4400024-0.8900146,6.710022
		c-1.3199463,5.7600098-2.3800049,11.6699829-3.1499634,17.5499878L11.25,44.5199585l0.0038452,0.0025635
		c-0.000061,0.0004272-0.0001221,0.0007935-0.0001831,0.0012207c0.2305298,0.1625977,0.4678955,0.3157959,0.7042236,0.4703979
		l0.3221436,0.2158203l0.0499878,0.0300293v-0.0300293c0.4400024-5.6300049,1.0999756-11.2799683,1.9799805-16.8099976v0.0500488
		c0,0.1299438-0.0100098,0.2599487-0.0100098,0.3899536h0.0499878l0.0500488,0.0100098
		c0.4299927-2.7799683,0.9299927-5.3699951,1.5199585-7.9199829l0.0400391-0.1900024
		c0.0700073-0.289978,0.1399536-0.5900269,0.2099609-0.8800049c0.0200195-0.0800171,0.0400391-0.1699829,0.0599976-0.25v-0.0100098
		c0.0300293-0.0899658,0.0500488-0.1699829,0.0700073-0.2799683c0.0300293-0.1199951,0.0599976-0.25,0.0900269-0.3800049
		c0.0499878-0.1700439,0.0899658-0.3400269,0.1300049-0.5c0-0.0200195,0.0100098-0.0400391,0.0100098-0.0599976
		c0.0099487-0.0200195,0.0099487-0.0300293,0.0199585-0.0500488c0-0.0099487,0-0.0099487,0.0100098-0.0199585
		c0.039978-0.1900024,0.0900269-0.3900146,0.1400146-0.5700073v-0.0100098
		c0.0100098-0.039978,0.0199585-0.0700073,0.0299683-0.0899658v-0.0200195C16.7399902,17.5999756,16.75,17.5799561,16.75,17.5499878
		c0.0499878-0.210022,0.1099854-0.4199829,0.1699829-0.6199951c0.0599976-0.210022,0.1100464-0.4299927,0.1700439-0.6400146
		C17.4500122,15.0199585,17.7600098,13.9699707,18.0599976,13c0.3400269-1.1000366,0.6300049-1.9899902,0.9099731-2.7900391
		l-0.0499878-0.0199585L18.8800049,10.1699829z"/>
	<path class="st2" d="M18.5599976,21.3599854H18.539978c-0.0499878,0-0.0799561,0.0300293-0.1399536,0.3599854
		c-0.1300049,0.6400146-0.3900146,2.1500244-0.7400513,4.2300415c-0.0999756,0.6199951-0.1999512,1.2799683-0.3199463,1.9599609
		c-0.1400146,0.9000244-0.2900391,1.8300171-0.4400024,2.7600098c-0.1700439,1.1300049-0.3500366,2.2600098-0.5200195,3.3099976
		c-0.0700073,0.460022-0.1400146,0.9100342-0.210022,1.3400269C15.3200073,40.7699585,14.8599854,44.0100098,14.5999756,46.5
		c0.0200195,0.0100098,0.0300293,0.0199585,0.0500488,0.0299683c0.2299805,0.1100464,0.4599609,0.210022,0.6900024,0.3099976
		c0.0199585,0.0100098,0.0299683,0.0100098,0.0499878,0.0200195v-0.0200195
		c0.3299561-4.289978,1.2099609-10.7299805,2.4099731-19.3499756c0.0499878-0.3900146,0.1000366-0.7399902,0.1500244-1.0700073
		c0.0700073-0.539978,0.1400146-1.0100098,0.1900024-1.4400024c0.1099854-0.7700195,0.1900024-1.3699951,0.25-1.8399658
		l0.0499878-0.3800049c0.0700073-0.5200195,0.1099854-0.8300171,0.1300049-1.0300293
		c0.0299683-0.3300171,0.0299683-0.3300171,0.0100098-0.3499756L18.5599976,21.3599854z"/>
	<path class="st2" d="M16.8099976,43.8299561h-0.0299683c-0.1600342,0-0.5200195,1.5200195-0.5800171,3.3700562l0.045166,0.0180054
		c0,0.0003052-0.000061,0.0006104-0.000061,0.0009155c0.0530396,0.0209351,0.1061401,0.041626,0.1590576,0.0627441
		l0.1958008,0.0783081l0.0500488,0.0200195v-0.0300293c-0.0700073-1.3900146,0.0799561-2.5200195,0.1499634-3.0599976
		c0.0499878-0.3399658,0.0499878-0.3999634,0.0200195-0.4400024L16.8099976,43.8299561z"/>
	<path class="st2" d="M11.2600098,33.1400146l-0.0499878-0.0200195c-1.1400146,2.9500122-2.0700073,6.0200195-2.75,9.0999756
		C8.4699707,42.2299805,8.4799805,42.2399902,8.4899902,42.25c0.2200317,0.2000122,0.4299927,0.3999634,0.6500244,0.5999756
		c0.0100098,0.0100098,0.0299683,0.0200195,0.039978,0.0400391l0.0100098-0.0300293
		c0.5800171-3.25,1.2999878-6.5200195,2.1199951-9.710022L11.2600098,33.1400146z"/>
	<path class="st2" d="M31.1400146,21.7199707c-0.0900269-0.3599854-0.1099854-0.3599854-0.1500244-0.3599854H30.960022
		l-0.0100098,0.0200195c-0.0300293,0.0299683-0.0300293,0.0599976,0,0.2799683l0.0100098,0.0800171
		c0.0599976,0.3900146,0.2199707,1.4500122,0.5299683,3.9099731v0.0200195
		c0.0700073,0.5499878,0.1500244,1.1500244,0.2299805,1.8200073c0.9400024,7.6199951,1.6000366,14.2299805,2.1100464,19.6799927
		v0.0200195c0.0199585-0.0100098,0.0299683-0.0100098,0.0499878-0.0200195
		c0.1900024-0.0800171,0.3800049-0.1500244,0.5599976-0.2299805c0.0200195-0.0100098,0.0299683-0.0100098,0.0499878-0.0200195
		C33.7800293,36.6099854,32.25,27.5199585,31.7999878,24.9699707
		C31.5100098,23.3699951,31.2800293,22.2399902,31.1400146,21.7199707z"/>
	<path class="st2" d="M40.5100098,42.4400024c-0.7200317-3.6300049-1.7700195-7.2399902-3.1099854-10.75l-0.0500488,0.0199585
		l-0.0499878,0.0100098c1,3.9100342,1.8400269,7.9400024,2.5,11.9800415l0.0100098,0.0199585
		c0.0100098-0.0100098,0.0300293-0.0199585,0.039978-0.0299683c0.25-0.1900024,0.5-0.4000244,0.7400513-0.6100464
		c0.0099487-0.0099487,0.0299683-0.0199585,0.039978-0.039978L40.5100098,42.4400024z"/>
</g>
</svg>
